<svg xmlns="http://www.w3.org/2000/svg" viewBox="0 0 443.64 441.82"><defs><style>.cls-1{fill:#8c54bc;}.cls-2{fill:#612c99;}.cls-3{fill:#fefefe;}.cls-4{fill:#6adea0;}</style></defs><title>Artboard 1</title><g id="Circle"><circle class="cls-1" cx="221.27" cy="219.73" r="216"/></g><g id="Long_Shadow" data-name="Long Shadow"><path class="cls-2" d="M437.23,223.49l-.19-.07.19-.19v-.06l-.69-.25.24-.23-.74-.27.24-.23-.74-.27.24-.23-.74-.27.24-.23-.74-.27.24-.23-.74-.27.24-.23-.74-.27.24-.23-.74-.27.24-.23-.74-.27.24-.23-.74-.27.24-.23-.74-.27.24-.23-.74-.27.24-.23-.74-.27.24-.23-.74-.27.24-.23-.74-.27.24-.23-.74-.27.24-.23-.74-.27.24-.23-.74-.27.24-.23-.74-.27.24-.23-.74-.27.24-.23-.74-.27.24-.23-.74-.27.24-.23-.74-.27.24-.23-.74-.27.24-.23-.74-.27.24-.23-.74-.27.24-.23-.74-.27.24-.23-.74-.27.24-.23-.74-.27.24-.23-.74-.27.24-.23-.74-.27.24-.23-.74-.27.24-.23-.74-.27.24-.23-.74-.27.24-.23-.74-.27.24-.23-.74-.27.24-.23-.74-.27.24-.23-.74-.27.24-.23-.74-.27.24-.23-.74-.27.24-.23-.74-.27.24-.23-.74-.27.24-.23-.74-.27.24-.23-.74-.27.24-.23-.74-.27.24-.23-.74-.27.24-.23-.74-.27.24-.23-.74-.27.24-.23-.74-.27.24-.23-.74-.27.24-.23-.74-.27.24-.23-.74-.27.24-.23-.74-.27.24-.23-.74-.27.24-.23-.74-.27.24-.23-.74-.27.24-.23-.74-.27.24-.23-.74-.27.24-.23-.74-.27.24-.23-.74-.27.24-.23-.74-.27.24-.23-.74-.27.24-.23-.74-.27.24-.23-.74-.27.24-.23-.74-.27.24-.23-.74-.27.24-.23-.74-.27.24-.23-.74-.27.24-.23-.74-.27.24-.23-.74-.27.24-.23-.74-.27.24-.23-.74-.27.24-.23-.74-.27.24-.23-.74-.27.24-.23-.74-.27.24-.23-.74-.27.24-.23-.74-.27.24-.23-.74-.27.24-.23-.74-.27.24-.23-.74-.27.24-.23-.74-.27.24-.23-.74-.27.24-.23-.74-.27.24-.23-.74-.27.24-.23-.74-.27.24-.23-.74-.27.24-.23-.74-.27.24-.23-.74-.27.24-.23-.74-.27.24-.23-.74-.27.24-.23-.74-.27.24-.23-.74-.27.24-.23-.74-.27.24-.23-.74-.27.24-.23-.74-.27.24-.23-.74-.27.24-.23-.74-.27.24-.23-.74-.27.24-.23-.74-.27.24-.23-.74-.27.24-.23-16.58-6q-1.75-.65-3.54-1.27a2.87,2.87,0,0,0-.48-.47,2.91,2.91,0,0,0-.5-.5,2.91,2.91,0,0,0-.5-.5,2.91,2.91,0,0,0-.5-.5,2.91,2.91,0,0,0-.5-.5,2.91,2.91,0,0,0-.5-.5,2.91,2.91,0,0,0-.5-.5,2.91,2.91,0,0,0-.5-.5,2.91,2.91,0,0,0-.5-.5,2.91,2.91,0,0,0-.5-.5,2.91,2.91,0,0,0-.5-.5,2.91,2.91,0,0,0-.5-.5,2.91,2.91,0,0,0-.5-.5,2.91,2.91,0,0,0-.5-.5,2.91,2.91,0,0,0-.5-.5,2.91,2.91,0,0,0-.5-.5,2.91,2.91,0,0,0-.5-.5,2.91,2.91,0,0,0-.5-.5,2.91,2.91,0,0,0-.5-.5,2.91,2.91,0,0,0-.5-.5,2.91,2.91,0,0,0-.5-.5,2.91,2.91,0,0,0-.5-.5,2.91,2.91,0,0,0-.5-.5,2.91,2.91,0,0,0-.5-.5,2.91,2.91,0,0,0-.5-.5,2.91,2.91,0,0,0-.5-.5,2.91,2.91,0,0,0-.5-.5,2.91,2.91,0,0,0-.5-.5,2.91,2.91,0,0,0-.5-.5,2.91,2.91,0,0,0-.5-.5,2.91,2.91,0,0,0-.5-.5,2.91,2.91,0,0,0-.5-.5,2.91,2.91,0,0,0-.5-.5,2.91,2.91,0,0,0-.5-.5,2.91,2.91,0,0,0-.5-.5,2.91,2.91,0,0,0-.5-.5,2.91,2.91,0,0,0-.5-.5,2.91,2.91,0,0,0-.5-.5,2.91,2.91,0,0,0-.5-.5,2.91,2.91,0,0,0-.5-.5,2.91,2.91,0,0,0-.5-.5,2.91,2.91,0,0,0-.5-.5,2.91,2.91,0,0,0-.5-.5,2.91,2.91,0,0,0-.5-.5,2.91,2.91,0,0,0-.5-.5,2.91,2.91,0,0,0-.5-.5,2.91,2.91,0,0,0-.5-.5,2.91,2.91,0,0,0-.5-.5,2.91,2.91,0,0,0-.5-.5,2.91,2.91,0,0,0-.5-.5,2.91,2.91,0,0,0-.5-.5,2.91,2.91,0,0,0-.5-.5,2.91,2.91,0,0,0-.5-.5,2.91,2.91,0,0,0-.5-.5,2.91,2.91,0,0,0-.5-.5,2.91,2.91,0,0,0-.5-.5,2.91,2.91,0,0,0-.5-.5,2.91,2.91,0,0,0-.5-.5,2.91,2.91,0,0,0-.5-.5,2.91,2.91,0,0,0-.5-.5,2.91,2.91,0,0,0-.5-.5,2.91,2.91,0,0,0-.5-.5,2.91,2.91,0,0,0-.5-.5,2.91,2.91,0,0,0-.5-.5,2.91,2.91,0,0,0-.5-.5,2.91,2.91,0,0,0-.5-.5,2.91,2.91,0,0,0-.5-.5,2.91,2.91,0,0,0-.5-.5,2.91,2.91,0,0,0-.5-.5,2.91,2.91,0,0,0-.5-.5,2.91,2.91,0,0,0-.5-.5,2.91,2.91,0,0,0-.5-.5,2.91,2.91,0,0,0-.5-.5,2.91,2.91,0,0,0-.5-.5,2.91,2.91,0,0,0-.5-.5,2.91,2.91,0,0,0-.5-.5,2.91,2.91,0,0,0-.5-.5,2.91,2.91,0,0,0-.5-.5,2.91,2.91,0,0,0-.5-.5,2.91,2.91,0,0,0-.5-.5,2.91,2.91,0,0,0-.5-.5,2.91,2.91,0,0,0-.5-.5,2.91,2.91,0,0,0-.5-.5,2.91,2.91,0,0,0-.5-.5,2.91,2.91,0,0,0-.5-.5,2.91,2.91,0,0,0-.5-.5,2.91,2.91,0,0,0-.5-.5,2.91,2.91,0,0,0-.5-.5,2.91,2.91,0,0,0-.5-.5,2.91,2.91,0,0,0-.5-.5,2.91,2.91,0,0,0-.5-.5,2.91,2.91,0,0,0-.5-.5,2.91,2.91,0,0,0-.5-.5,2.91,2.91,0,0,0-.5-.5,2.91,2.91,0,0,0-.5-.5,2.91,2.91,0,0,0-.5-.5,2.91,2.91,0,0,0-.5-.5,2.91,2.91,0,0,0-.5-.5,2.91,2.91,0,0,0-.5-.5,2.91,2.91,0,0,0-.5-.5,2.91,2.91,0,0,0-.5-.5,2.91,2.91,0,0,0-.5-.5,2.91,2.91,0,0,0-.5-.5,2.91,2.91,0,0,0-.5-.5,2.91,2.91,0,0,0-.5-.5,2.91,2.91,0,0,0-.5-.5,2.91,2.91,0,0,0-.5-.5,2.91,2.91,0,0,0-.5-.5,2.91,2.91,0,0,0-.5-.5,2.91,2.91,0,0,0-.5-.5,2.91,2.91,0,0,0-.5-.5,2.91,2.91,0,0,0-.5-.5,2.91,2.91,0,0,0-.5-.5,2.91,2.91,0,0,0-.5-.5,2.91,2.91,0,0,0-.5-.5,2.91,2.91,0,0,0-.5-.5,2.91,2.91,0,0,0-.5-.5,2.91,2.91,0,0,0-.5-.5,2.91,2.91,0,0,0-.5-.5,2.91,2.91,0,0,0-.5-.5,2.91,2.91,0,0,0-.5-.5,2.91,2.91,0,0,0-.5-.5,2.91,2.91,0,0,0-.5-.5,2.91,2.91,0,0,0-.5-.5,2.91,2.91,0,0,0-.5-.5,2.91,2.91,0,0,0-.5-.5,2.91,2.91,0,0,0-.5-.5,2.91,2.91,0,0,0-.5-.5,2.91,2.91,0,0,0-.5-.5,2.91,2.91,0,0,0-.5-.5,23570229.32,23570229.32,0,0,1-1-1,2.91,2.91,0,0,0-.5-.5,2.91,2.91,0,0,0-.5-.5,2.91,2.91,0,0,0-.5-.5,2.91,2.91,0,0,0-.5-.5,2.91,2.91,0,0,0-.5-.5,2.91,2.91,0,0,0-.5-.5,2.91,2.91,0,0,0-.5-.5,2.91,2.91,0,0,0-.5-.5,2.91,2.91,0,0,0-.5-.5,2.91,2.91,0,0,0-.5-.5,2.91,2.91,0,0,0-.5-.5,2.91,2.91,0,0,0-.5-.5,2.91,2.91,0,0,0-.5-.5,2.91,2.91,0,0,0-.5-.5,2.91,2.91,0,0,0-.5-.5,2.91,2.91,0,0,0-.5-.5,2.91,2.91,0,0,0-.5-.5,2.91,2.91,0,0,0-.5-.5,2.91,2.91,0,0,0-.5-.5,2.91,2.91,0,0,0-.5-.5,2.91,2.91,0,0,0-.5-.5,2.91,2.91,0,0,0-.5-.5,2.91,2.91,0,0,0-.5-.5,2.91,2.91,0,0,0-.5-.5,2.91,2.91,0,0,0-.5-.5,2.91,2.91,0,0,0-.5-.5,2.91,2.91,0,0,0-.5-.5,2.91,2.91,0,0,0-.5-.5,2.91,2.91,0,0,0-.5-.5,2.91,2.91,0,0,0-.5-.5,2.91,2.91,0,0,0-.5-.5,2.91,2.91,0,0,0-.5-.5,2.91,2.91,0,0,0-.5-.5,2.91,2.91,0,0,0-.5-.5,2.91,2.91,0,0,0-.5-.5,2.91,2.91,0,0,0-.5-.5,2.91,2.91,0,0,0-.5-.5,2.91,2.91,0,0,0-.5-.5,2.91,2.91,0,0,0-.5-.5,2.91,2.91,0,0,0-.5-.5,2.91,2.91,0,0,0-.5-.5,2.91,2.91,0,0,0-.5-.5,2.91,2.91,0,0,0-.5-.5,2.91,2.91,0,0,0-.5-.5,2.91,2.91,0,0,0-.5-.5,2.91,2.91,0,0,0-.5-.5,2.91,2.91,0,0,0-.5-.5,2.91,2.91,0,0,0-.5-.5,2.91,2.91,0,0,0-.5-.5,2.91,2.91,0,0,0-.5-.5,2.91,2.91,0,0,0-.5-.5,2.91,2.91,0,0,0-.5-.5,2.91,2.91,0,0,0-.5-.5,2.91,2.91,0,0,0-.5-.5,2.91,2.91,0,0,0-.5-.5,2.91,2.91,0,0,0-.5-.5,2.91,2.91,0,0,0-.5-.5,2.91,2.91,0,0,0-.5-.5,2.91,2.91,0,0,0-.5-.5,2.91,2.91,0,0,0-.5-.5,2.91,2.91,0,0,0-.5-.5,2.91,2.91,0,0,0-.5-.5,2.91,2.91,0,0,0-.5-.5,2.91,2.91,0,0,0-.5-.5,2.91,2.91,0,0,0-.5-.5,2.91,2.91,0,0,0-.5-.5,2.91,2.91,0,0,0-.5-.5,2.91,2.91,0,0,0-.5-.5,2.91,2.91,0,0,0-.5-.5,2.91,2.91,0,0,0-.5-.5,2.91,2.91,0,0,0-.5-.5,2.91,2.91,0,0,0-.5-.5,2.91,2.91,0,0,0-.5-.5,2.91,2.91,0,0,0-.5-.5,2.91,2.91,0,0,0-.5-.5,2.91,2.91,0,0,0-.5-.5,2.91,2.91,0,0,0-.5-.5,2.91,2.91,0,0,0-.5-.5,2.91,2.91,0,0,0-.5-.5,2.91,2.91,0,0,0-.5-.5,2.91,2.91,0,0,0-.5-.5,2.91,2.91,0,0,0-.5-.5,2.91,2.91,0,0,0-.5-.5,2.91,2.91,0,0,0-.5-.5,2.91,2.91,0,0,0-.5-.5,2.91,2.91,0,0,0-.5-.5,2.91,2.91,0,0,0-.5-.5,2.91,2.91,0,0,0-.5-.5,2.91,2.91,0,0,0-.5-.5,2.91,2.91,0,0,0-.5-.5,2.91,2.91,0,0,0-.5-.5,2.91,2.91,0,0,0-.5-.5,2.91,2.91,0,0,0-.5-.5,2.91,2.91,0,0,0-.5-.5,2.91,2.91,0,0,0-.5-.5,2.91,2.91,0,0,0-.5-.5,2.91,2.91,0,0,0-.5-.5,2.91,2.91,0,0,0-.5-.5,2.91,2.91,0,0,0-.5-.5,2.91,2.91,0,0,0-.5-.5,2.91,2.91,0,0,0-.5-.5,2.91,2.91,0,0,0-.5-.5c-1.21-1.52-2.83-1.25-5.15,2.91a58.54,58.54,0,0,1-8.63,11.77c-13.89,14.68-27,29.66-37.28,47.18-8.31,14.2-18.15,31-13.38,48.07l3.8,13.57c-5.79-3.23-10.49-7.22-15.74-10.47-15-9.26-35.54-13-52.75-15.29-18.82-2.47-38.5-2.22-56.75,3.46-3.63,1.91-8.13,1.5-11.77,4.18l.53.48,0,0,.53.48,0,0,.53.48,0,0,.53.48,0,0,.53.48,0,0,.53.48,0,0,.53.48,0,0,.53.48,0,0,.53.48,0,0,.53.48,0,0,.53.48,0,0,.53.48,0,0,.53.48,0,0,.53.48,0,0,.53.48,0,0,.53.48,0,0,.53.48,0,0,.53.48,0,0,.53.48,0,0,.53.48,0,0,.53.48,0,0,.53.48,0,0,.53.48,0,0,.53.48,0,0,.53.48,0,0,.53.48,0,0,.53.48,0,0,.53.48,0,0,.53.48,0,0,.53.48,0,0,.53.48,0,0,.53.48,0,0,.53.48,0,0,.53.48,0,0,.53.48,0,0,.53.48,0,0,.53.48,0,0,.53.48,0,0,.53.48,0,0,.53.48,0,0,.53.48,0,0,.53.48,0,0,.53.48,0,0,.53.48,0,0,.53.48,0,0,.53.48,0,0,.53.48,0,0,.53.48,0,0,.53.48,0,0,.53.48,0,0,.53.48,0,0,.53.48,0,0,.53.48,0,0,.53.48,0,0,.53.48,0,0,.53.48,0,0,.53.48,0,0,.53.48,0,0,.53.48,0,0,.53.48,0,0,.53.48,0,0,.53.48,0,0,.53.48,0,0,.53.48,0,0,.53.48,0,0,.53.48,0,0,.53.48,0,0,.53.48,0,0,.53.48,0,0,.53.48,0,0,.53.48,0,0,.53.48,0,0,.53.48,0,0,.53.48,0,0,.53.48,0,0,.53.48,0,0,.53.48,0,0,.53.48,0,0,.53.48,0,0,.53.48,0,0,.53.48,0,0,.53.48,0,0,.53.48,0,0,.53.48,0,0,.53.48,0,0,.53.48,0,0,.53.48,0,0,.53.48,0,0,.53.48,0,0,.53.48,0,0,.53.48,0,0,.53.48,0,0,.53.48,0,0,.53.48,0,0,.53.48,0,0,.53.48,0,0,.53.48,0,0,.53.48,0,0,.53.48,0,0,.53.48,0,0,.53.48,0,0,.53.48,0,0,.53.48,0,0,.53.48,0,0,.53.48,0,0,.53.48,0,0,.53.48,0,0,.53.48,0,0,.53.48,0,0,.53.48,0,0,.53.48,0,0,.53.48,0,0,.53.48,0,0,.53.48,0,0,.53.48,0,0,.53.48,0,0,.53.48,0,0,.53.48,0,0,.53.48,0,0,.53.48,0,0,.53.48,0,0,.53.48,0,0,.53.48,0,0,.53.48,0,0,.53.48,0,0,.53.48,0,0,.53.48,0,0,.53.48,0,0,.53.48,0,0,.53.48,0,0,.53.48,0,0,.53.48,0,0,.53.48,0,0,.53.48,0,0,.53.48,0,0,.53.48,0,0,.53.48,0,0,.53.48,0,0,.53.48,0,0,.53.48,0,0,.53.48,0,0,.53.48,0,0,.53.48,0,0,.53.48,0,0,.53.48,0,0,.53.48,0,0,.53.48,0,0,.53.48,0,0,.53.48,0,0,.53.48,0,0,.53.48,0,0,.53.48,0,0,.53.48,0,0,.53.48,0,0,.53.48,0,0,.53.48,0,0,.53.48,0,0,.53.48,0,0,.53.48,0,0,.53.48,0,0,.53.48,0,0,.53.48,0,0,.53.48,0,0,.53.48,0,0,.53.48,0,0,.53.48,0,0,.53.48,0,0,.53.48,0,0,.53.48,0,0,.53.48,0,0,.53.48,0,0,.53.48,0,0,.08.07c-.91.62-1.8,1.28-2.66,2q-1.59,1.32-3.11,2.74a76.08,76.08,0,0,0-17.09,23.52c-7.76,16.6-9.4,35-9.87,53.07-.24,9.38.09,18.84-.6,28.2-.4,5.49-3.73,13.67-.64,18.77a1.72,1.72,0,0,0,.22,0c.09.18.17.37.28.54a1.72,1.72,0,0,0,.22,0c.09.18.17.37.28.54a1.72,1.72,0,0,0,.22,0c.09.18.17.37.28.54a1.72,1.72,0,0,0,.22,0c.09.18.17.37.28.54a1.72,1.72,0,0,0,.22,0c.09.18.17.37.28.54a1.72,1.72,0,0,0,.22,0c.09.18.17.37.28.54a1.72,1.72,0,0,0,.22,0c.09.18.17.37.28.54a1.72,1.72,0,0,0,.22,0c.09.18.17.37.28.54a1.72,1.72,0,0,0,.22,0c.09.18.17.37.28.54a1.72,1.72,0,0,0,.22,0c.09.18.17.37.28.54a1.72,1.72,0,0,0,.22,0c.09.18.17.37.28.54a1.72,1.72,0,0,0,.22,0c.09.18.17.37.28.54a1.72,1.72,0,0,0,.22,0c.09.18.17.37.28.54a1.72,1.72,0,0,0,.22,0c.09.18.17.37.28.54a1.72,1.72,0,0,0,.22,0c.09.18.17.37.28.54a1.72,1.72,0,0,0,.22,0c.09.18.17.37.28.54a1.72,1.72,0,0,0,.22,0c.09.18.17.37.28.54a1.72,1.72,0,0,0,.22,0c.09.18.17.37.28.54a1.72,1.72,0,0,0,.22,0c.09.18.17.37.28.54a1.72,1.72,0,0,0,.22,0c.09.18.17.37.28.54a1.72,1.72,0,0,0,.22,0c.09.18.17.37.28.54a1.72,1.72,0,0,0,.22,0c.09.18.17.37.28.54a1.72,1.72,0,0,0,.22,0c.09.18.17.37.28.54a1.72,1.72,0,0,0,.22,0c.09.18.17.37.28.54a1.72,1.72,0,0,0,.22,0c.09.18.17.37.28.54a1.72,1.72,0,0,0,.22,0c.09.18.17.37.28.54a1.72,1.72,0,0,0,.22,0c.09.18.17.37.28.54a1.72,1.72,0,0,0,.22,0c.09.18.17.37.28.54a1.72,1.72,0,0,0,.22,0c.09.18.17.37.28.54a1.72,1.72,0,0,0,.22,0c.09.18.17.37.28.54a1.72,1.72,0,0,0,.22,0c.09.18.17.37.28.54a1.72,1.72,0,0,0,.22,0c.09.18.17.37.28.54a1.72,1.72,0,0,0,.22,0c.09.18.17.37.28.54a1.72,1.72,0,0,0,.22,0c.09.18.17.37.28.54a1.72,1.72,0,0,0,.22,0c.09.18.17.37.28.54a1.72,1.72,0,0,0,.22,0c.09.18.17.37.28.54a1.72,1.72,0,0,0,.22,0c.09.18.17.37.28.54a1.72,1.72,0,0,0,.22,0c.09.18.17.37.28.54a1.72,1.72,0,0,0,.22,0c.09.18.17.37.28.54a1.72,1.72,0,0,0,.22,0c.09.18.17.37.28.54a1.72,1.72,0,0,0,.22,0c.09.18.17.37.28.54a1.72,1.72,0,0,0,.22,0c.09.18.17.37.28.54a1.72,1.72,0,0,0,.22,0c.09.18.17.37.28.54a1.72,1.72,0,0,0,.22,0c.09.18.17.37.28.54a1.72,1.72,0,0,0,.22,0c.09.18.17.37.28.54a1.72,1.72,0,0,0,.22,0c.09.18.17.37.28.54a1.72,1.72,0,0,0,.22,0c.09.18.17.37.28.54a1.72,1.72,0,0,0,.22,0c.09.18.17.37.28.54a1.72,1.72,0,0,0,.22,0c.09.18.17.37.28.54a1.72,1.72,0,0,0,.22,0c.09.18.17.37.28.54a1.72,1.72,0,0,0,.22,0c.09.18.17.37.28.54a1.72,1.72,0,0,0,.22,0c.09.18.17.37.28.54a1.72,1.72,0,0,0,.22,0c.09.18.17.37.28.54a1.72,1.72,0,0,0,.22,0c.09.18.17.37.28.54a1.72,1.72,0,0,0,.22,0c.09.18.17.37.28.54a1.72,1.72,0,0,0,.22,0c.09.18.17.37.28.54a1.72,1.72,0,0,0,.22,0c.09.18.17.37.28.54a1.72,1.72,0,0,0,.22,0c.09.18.17.37.28.54a1.72,1.72,0,0,0,.22,0c.09.18.17.37.28.54a1.72,1.72,0,0,0,.22,0c.09.18.17.37.28.54a1.72,1.72,0,0,0,.22,0c.09.18.17.37.28.54a1.72,1.72,0,0,0,.22,0c.09.18.17.37.28.54a1.72,1.72,0,0,0,.22,0c.09.18.17.37.28.54a1.72,1.72,0,0,0,.22,0c.09.18.17.37.28.54a1.72,1.72,0,0,0,.22,0c.09.18.17.37.28.54a1.72,1.72,0,0,0,.22,0c.09.18.17.37.28.54a1.72,1.72,0,0,0,.22,0c.09.18.17.37.28.54a1.72,1.72,0,0,0,.22,0c.09.18.17.37.28.54a1.72,1.72,0,0,0,.22,0c.09.18.17.37.28.54a1.72,1.72,0,0,0,.22,0c.09.18.17.37.28.54a1.72,1.72,0,0,0,.22,0c.09.18.17.37.28.54a1.72,1.72,0,0,0,.22,0c.09.18.17.37.28.54a1.72,1.72,0,0,0,.22,0c.09.18.17.37.28.54a1.72,1.72,0,0,0,.22,0c.09.18.17.37.28.54a1.72,1.72,0,0,0,.22,0c.09.18.17.37.28.54a1.72,1.72,0,0,0,.22,0c.09.18.17.37.28.54a1.72,1.72,0,0,0,.22,0c.09.18.17.37.28.54a1.72,1.72,0,0,0,.22,0c.09.18.17.37.28.54a1.72,1.72,0,0,0,.22,0c.09.18.17.37.28.54a1.72,1.72,0,0,0,.22,0c.09.18.17.37.28.54a1.72,1.72,0,0,0,.22,0c.09.18.17.37.28.54a1.72,1.72,0,0,0,.22,0c.09.18.17.37.28.54a1.72,1.72,0,0,0,.22,0c.09.18.17.37.28.54a1.72,1.72,0,0,0,.22,0c.09.18.17.37.28.54a1.72,1.72,0,0,0,.22,0c.09.18.17.37.28.54a1.72,1.72,0,0,0,.22,0c.09.18.17.37.28.54a1.72,1.72,0,0,0,.22,0c.09.18.17.37.28.54a1.72,1.72,0,0,0,.22,0c.09.18.17.37.28.54a1.72,1.72,0,0,0,.22,0c.09.18.17.37.28.54a1.72,1.72,0,0,0,.22,0c.09.18.17.37.28.54a1.72,1.72,0,0,0,.22,0c.09.18.17.37.28.54a1.72,1.72,0,0,0,.22,0c.09.18.17.37.28.54a1.72,1.72,0,0,0,.22,0c.09.18.17.37.28.54a1.72,1.72,0,0,0,.22,0c.09.18.17.37.28.54a1.72,1.72,0,0,0,.22,0c.09.18.17.37.28.54a1.72,1.72,0,0,0,.22,0c.09.18.17.37.28.54a1.72,1.72,0,0,0,.22,0c.09.18.17.37.28.54a1.72,1.72,0,0,0,.22,0c.09.18.17.37.28.54a1.72,1.72,0,0,0,.22,0c.09.18.17.37.28.54a1.72,1.72,0,0,0,.22,0c.09.18.17.37.28.54a1.72,1.72,0,0,0,.22,0c.09.18.17.37.28.54a1.72,1.72,0,0,0,.22,0c.09.18.17.37.28.54a1.72,1.72,0,0,0,.22,0c.09.18.17.37.28.54a1.72,1.72,0,0,0,.22,0c.09.18.17.37.28.54a1.72,1.72,0,0,0,.22,0c.09.18.17.37.28.54a1.72,1.72,0,0,0,.22,0c.09.18.17.37.28.54a1.72,1.72,0,0,0,.22,0c.09.18.17.37.28.54a1.72,1.72,0,0,0,.22,0c.09.18.17.37.28.54a1.72,1.72,0,0,0,.22,0c.09.18.17.37.28.54a1.72,1.72,0,0,0,.22,0c.09.18.17.37.28.54a1.72,1.72,0,0,0,.22,0c.09.18.17.37.28.54a1.72,1.72,0,0,0,.22,0c.09.18.17.37.28.54a1.72,1.72,0,0,0,.22,0c.09.18.17.37.28.54a1.72,1.72,0,0,0,.22,0c.09.18.17.37.28.54a1.72,1.72,0,0,0,.22,0c.09.18.17.37.28.54a1.72,1.72,0,0,0,.22,0c.09.18.17.37.28.54a1.72,1.72,0,0,0,.22,0c.09.18.17.37.28.54a1.72,1.72,0,0,0,.22,0c.09.18.17.37.28.54a1.72,1.72,0,0,0,.22,0l.17.34a216.2,216.2,0,0,0,57.24,7.68C339.31,435.73,435.21,341,437.23,223.49Z"/></g><g id="Pedals"><path class="cls-3" d="M322.45,375.42c-2.2-.09-7-5.1-8.82-6.46-2.93-2.18-5.88-4.35-8.78-6.58-5.88-4.52-11.67-9.13-17.75-13.39a301.56,301.56,0,0,0-33.73-20.47c-10.48-5.46-21.94-9.58-31.24-17-8.25-6.63-11.36-14.19-12.28-24.43,0-.55-6.89,6-7.33,6.42-28.23,28-68.44,40.28-95.29,70q-1.42,1.57-2.77,3.21a2.12,2.12,0,0,1-1.61,1c-3.1-5.14.24-13.36.65-18.88.69-9.41.36-18.93.61-28.36.47-18.19,2.12-36.69,9.92-53.39a76.53,76.53,0,0,1,17.19-23.66q1.53-1.42,3.12-2.75a35.29,35.29,0,0,1,15.82-7.56c-7.06,1.45-19.33-6.07-25-9.68-8.6-5.52-16.47-11.78-21.86-20.42C77.22,161.09,68.43,168.59,50.42,152c3.66-2.7,8.18-2.28,11.84-4.2,18.36-5.71,38.16-6,57.09-3.48,17.31,2.27,38,6.06,53.07,15.38,5.28,3.27,10,7.28,15.83,10.53l-3.82-13.65c-4.79-17.12,5.1-34.07,13.46-48.35,10.32-17.63,23.54-32.69,37.51-47.46a58.89,58.89,0,0,0,8.68-11.84c4.8-8.64,6.63-.64,8,5.52q6,26.29,10.38,52.93c2.77,17,5,34.15,2,51.31a71.18,71.18,0,0,1-4.39,15.72c30.52-24.51,75.78-22.38,110.34-9.46l16.68,6c-15.1,15.15-39.3,30.5-53.46,46.44a144.8,144.8,0,0,1-18.87,18.19,44.14,44.14,0,0,1-14.2,7.67,29.61,29.61,0,0,1-16.48,0l-3-.79a28.74,28.74,0,0,0-8.12-1.15c-.71,0-2.43,0-2.39,1.14,0,.72,1.05,1,1.57,1.31.91.51,1.8,1.06,2.68,1.62a67.12,67.12,0,0,1,5.82,4.16c15.48,12.37,23.43,31.18,28.69,49.76a495.64,495.64,0,0,1,13.25,62.8c.5,3.42,1,6.84,1.57,10.25C324.61,374,325,375.52,322.45,375.42Z"/></g><g id="Center"><path class="cls-2" d="M254.59,211.63c-5.21,2.58-10.78,5.52-13.27,10.77a4.06,4.06,0,0,0-.36,3.38,4.75,4.75,0,0,0,2,1.82c7.89,4.89,11.56,5,25,15.53-10.59-7.08-20.08-7.18-29.87-9.08a3.27,3.27,0,0,0-3.37,1.27c-.88,1.31-.14,2.45.54,3.44,10,14.53,44.18,48.58,53.81,79.59-25.75-42.17-43.88-57.83-54-68.75-3-3.2-8.37-8.39-10.66-7.07-3.39,1.12-7.46,27.4-11.18,41.09l2.73-21.47c.56-4.4,1.11-8.94-.11-13.21s-4.69-8.21-9.12-8.54c-2.49-.19-4.91.76-7.19,1.77a107.23,107.23,0,0,0-18.27,10.53A147.7,147.7,0,0,0,165,266.26c-5.16,4.91-10,10.12-14.7,15.48q-1.75,2-3.47,4c-.25.3-1.24,1.83-1.64,1.68s.7-1.63.89-1.92q2.94-4.48,6.12-8.78a193.16,193.16,0,0,1,29.08-31.33c5.4-4.66,19.38-12.83,18.47-14.07s-30.11,1.63-45.05,3.74l34.13-9.54c3.92-1.09,8.34-2.59,9-7.22a7.7,7.7,0,0,0-.77-4.46c-1.8-3.71-5.32-5.76-8.75-7.68q-16.76-9.39-34.08-17.73,22.32,6.12,44.29,13.4a2.67,2.67,0,0,0,3.32-3.55,240,240,0,0,0-10.48-22.21l17.15,20.59a6.62,6.62,0,0,0,3,2.41c1.79.52,3.74-.61,4.75-2.18a13.19,13.19,0,0,0,1.58-5.33l6.25-42.67c0,15.66.1,31.51,3.43,46.77a4.14,4.14,0,0,0,5.53,3,58.64,58.64,0,0,0,25.57-19l-18.75,24.51a3.92,3.92,0,0,0-.73,3.5c.93,3,4.64,2.33,7.21,1.29,24.7-10,62.83-32.61,82.44-30.41C311,182.21,276.51,200.77,254.59,211.63Z"/></g><g id="Balls"><circle class="cls-4" cx="220.16" cy="208.03" r="4.57"/><circle class="cls-4" cx="234.36" cy="218.78" r="4.3"/><circle class="cls-4" cx="226.99" cy="230.39" r="4.75"/><circle class="cls-4" cx="210.64" cy="230.07" r="5.17"/><circle class="cls-4" cx="207.8" cy="215.24" r="4.71"/><circle class="cls-4" cx="220.02" cy="220.5" r="5.14"/></g></svg>